<svg xmlns="http://www.w3.org/2000/svg" viewBox="0 0 400 300" width="400" height="300" role="img" aria-label="Nahaufnahme frischer Kupferrot-Dachziegel nach der Sanierung">
  <defs>
    <linearGradient id="tz" x1="0" y1="0" x2="0" y2="1">
      <stop offset="0%" stop-color="#c96a34"/>
      <stop offset="100%" stop-color="#a94f24"/>
    </linearGradient>
  </defs>
  <rect width="400" height="300" fill="url(#tz)"/>
  <g fill="#e07f45" opacity="0.9">
    <rect x="0" y="20" width="400" height="9"/>
    <rect x="0" y="66" width="400" height="9"/>
    <rect x="0" y="112" width="400" height="9"/>
    <rect x="0" y="158" width="400" height="9"/>
    <rect x="0" y="204" width="400" height="9"/>
    <rect x="0" y="250" width="400" height="9"/>
  </g>
  <g fill="#8a3f1c" opacity="0.55">
    <rect x="0" y="29" width="400" height="4"/>
    <rect x="0" y="75" width="400" height="4"/>
    <rect x="0" y="121" width="400" height="4"/>
    <rect x="0" y="167" width="400" height="4"/>
    <rect x="0" y="213" width="400" height="4"/>
  </g>
  <polygon points="60,0 200,0 140,300 0,300" fill="#f3a56c" opacity="0.22"/>
</svg>
